# Blender v3.1.2 OBJ File: 'Plane.blend'
# www.blender.org
mtllib Cross.mtl
o Plane
v -1.000000 0.000000 -0.333333
v -1.000000 0.000000 0.333333
v 1.000000 0.000000 0.333333
v 1.000000 0.000000 -0.333333
v -0.333333 0.000000 1.000000
v 0.333333 0.000000 1.000000
v 0.333333 0.000000 -1.000000
v -0.333333 0.000000 -1.000000
v 0.333333 0.000000 0.333333
v -0.333333 0.000000 0.333333
v 0.333333 0.000000 -0.333333
v -0.333333 0.000000 -0.333333
vt 0.666667 0.333333
vt 1.000000 0.333333
vt 1.000000 0.666667
vt 0.666667 0.666667
vt 0.000000 0.333333
vt 0.333333 0.333333
vt 0.333333 0.666667
vt 0.000000 0.666667
vt 0.333333 0.000000
vt 0.666667 0.000000
vt 0.666667 1.000000
vt 0.333333 1.000000
vn 0.0000 1.0000 0.0000
usemtl None
s off
f 9/1/1 3/2/1 4/3/1 11/4/1
f 2/5/1 10/6/1 12/7/1 1/8/1
f 10/6/1 9/1/1 11/4/1 12/7/1
f 5/9/1 6/10/1 9/1/1 10/6/1
f 12/7/1 11/4/1 7/11/1 8/12/1
