# Blender v3.1.2 OBJ File: 'Plane.blend'
# www.blender.org
mtllib Tee.mtl
o Plane
v 1.000000 0.000000 0.333333
v 1.000000 0.000000 -0.333333
v -0.333333 0.000000 1.000000
v 0.333333 0.000000 1.000000
v 0.333333 0.000000 0.333333
v -0.333333 0.000000 0.333333
v 0.333333 0.000000 -0.333333
v -1.000000 0.000000 0.333333
v -0.333333 0.000000 -0.333333
v -1.000000 0.000000 -0.333333
vt 0.666667 0.333333
vt 1.000000 0.333333
vt 1.000000 0.666667
vt 0.666667 0.666667
vt 0.333333 0.333333
vt 0.333333 0.666667
vt 0.333333 0.000000
vt 0.666667 0.000000
vt 0.333333 0.333333
vt 0.666667 0.333333
vt 0.666667 0.666667
vt 0.333333 0.666667
vn 0.0000 1.0000 0.0000
usemtl None
s off
f 5/1/1 1/2/1 2/3/1 7/4/1
f 6/5/1 5/1/1 7/4/1 9/6/1
f 3/7/1 4/8/1 5/1/1 6/5/1
f 8/9/1 6/10/1 9/11/1 10/12/1
